<svg width="512" height="512" viewBox="0 0 16 16" xmlns="http://www.w3.org/2000/svg"><path fill="#fff" d="M7.999913.50000005a2 2 0 0 0-2 2.00000005v1a2 2 0 0 0 2 2 2 2 0 0 0 2-2h1a2.0000001 2.0000001 0 0 1 0 4h-6a3.0000001 3.0000001 0 0 0 0 5.9999999h1a2 2 0 0 0 2 2h1a2 2 0 0 0 2-2v-1a2 2 0 0 0-2-2h-1a2 2 0 0 0-2 2h-1a2.0000001 2.0000001 0 0 1 0-3.9999999h6a3.0000001 3.0000001 0 0 0 0-6h-1a2 2 0 0 0-2-2.00000005zm0 1.00000005a1 1 0 0 1 1 1v1a1 1 0 0 1-1 1 1 1 0 0 1-1-1v-1a1 1 0 0 1 1-1zm0 9.9999999h1a1 1 0 0 1 1 1v1a1 1 0 0 1-1 1h-1a1 1 0 0 1-1-1v-1a1 1 0 0 1 1-1z"/></svg>