<svg width="512" height="512" viewBox="0 0 16 16" xmlns="http://www.w3.org/2000/svg"><path fill="#fff" d="M.5 1a.5.5 0 0 0-.5.5.5.5 0 0 0 .5.5H1v12.5a.5.5 0 0 0 1 0V12h13.5a.5.5 0 0 0 .5-.5v-7a.5.5 0 0 0-.5-.5h-1v1h.5v6H2V5h5.5V4H2V1.5a.5.5 0 0 0-.5-.5h-1zm11.16394.000061a.33240977.33240977 0 0 0-.214843.0725708L9.8781128 2.3291626H8.3323975A.33240977.33240977 0 0 0 8 2.6615601v2.6593017a.33240977.33240977 0 0 0 .3323975.3323975h1.5457153L11.449097 6.90979a.33240977.33240977 0 0 0 .539795-.2592773V1.3319702a.33240977.33240977 0 0 0-.324952-.3319092zm1.459839.8756714-.470031.4700318a2.3202202 2.3202202 0 0 1 .681457 1.6454467 2.3195554 2.3195554 0 0 1-.681457 1.6454468l.470031.4700318A2.9823805 2.9823805 0 0 0 14 3.9912109a2.9823805 2.9823805 0 0 0-.876221-2.1154785zm-1.799682.147583v3.93573l-1.122193-.897522a.33240977.33240977 0 0 0-.2074582-.0731201H8.6647949V2.9938965h1.3296509a.33240977.33240977 0 0 0 .2074582-.0731812v.0001221l1.122193-.897522zM3 12.5v1a.5.5 0 0 0 .5.5H6a.5.5 0 0 0 .5-.5v-1H3zm4 0v1a.5.5 0 0 0 .5.5h3a.5.5 0 0 0 .5-.5v-1H7z"/></svg>