<svg width="512" height="512" viewBox="0 0 16 16" xmlns="http://www.w3.org/2000/svg"><path fill="#fff" d="M11.709839 0v3.005127L10.455933 1.75177l-.45575.4557495 1.575256 1.5853272-.000183.0004272L10 5.368042l.45575.4557495 1.264526-1.2533569v3.0161133L14 5.3062744l-1.513-1.5130005 1.503112-1.5135498L11.709839 0zM.5 1a.5.5 0 0 0-.5.5.5.5 0 0 0 .5.5H1v12.5a.5.5 0 0 0 1 0V12h13.5a.5.5 0 0 0 .5-.5v-7a.5.5 0 0 0-.5-.5H14v1h1v6H2V5h8.000183V4H2V1.5a.5.5 0 0 0-.5-.5h-1zm11.8526.5544434.725281.7254638-.725281.7252808V1.5544434zm0 3.0161132.725281.7252808-.725281.7254639V4.5705566zM3 12.5v1a.5.5 0 0 0 .5.5H6a.5.5 0 0 0 .5-.5v-1H3zm4 0v1a.5.5 0 0 0 .5.5h3a.5.5 0 0 0 .5-.5v-1H7z"/></svg>