<svg width="512" height="512" viewBox="0 0 16 16" xmlns="http://www.w3.org/2000/svg"><path fill="#fff" d="M5 0c-.5522836 0-1 .4477164-1 1v14c0 .552283.4477164 1 1 1h6c.552284 0 1-.447717 1-1V1c0-.5522836-.447716-1-1-1Zm.75 1h4.5c.414213 0 .75.3357872.75.75v12.5c0 .414214-.335787.75-.75.75h-4.5c-.4142127 0-.75-.335786-.75-.75V1.75c0-.4142128.3357873-.75.75-.75Zm.25.5c-.6666639 0-.6666639 1 0 1h4c.666664 0 .666664-1 0-1H7.5zm0 2c-.6666639 0-.6666639 1 0 1h4c.666664 0 .666664-1 0-1H7.5zm0 10c-.2499998 0-.5.166667-.5.5 0 .666664 1 .666664 1 0 0-.333333-.2500002-.5-.5-.5zm1.5 0c-.2499997 0-.5.166667-.5.5 0 .666664 1 .666664 1 0 0-.333333-.2500003-.5-.5-.5Z"/></svg>