<svg width="512" height="512" viewBox="0 0 16 16" xmlns="http://www.w3.org/2000/svg"><path fill="#fff" style="stroke-width:32" d="M480 130a64 64 0 0 0-64-64H96a64 64 0 0 0-64 64v128a64 64 0 0 0 64 64h3.7793A160 160 0 0 0 256 450a160 160 0 0 0 156.43555-128H416a64 64 0 0 0 64-64zm-32 0v128a32 32 0 0 1-32 32H96a32 32 0 0 1-32-32V130a32 32 0 0 1 32-32h320a32 32 0 0 1 32 32zm-68.41602 192A128 128 0 0 1 256 418a128 128 0 0 1-123.32031-96h68.57226A64 64 0 0 0 256 354a64 64 0 0 0 55.10742-32Z" transform="translate(0 -.0625) scale(.03125)"/></svg>