<svg width="512" height="512" viewBox="0 0 16 16" xmlns="http://www.w3.org/2000/svg"><g fill="#fff"><path d="M10 3c0 1.313-.304 2.508-.8 3.4a1.991 1.991 0 0 0-1.484-.38c-.28-.982-.91-2.04-1.838-2.969a8.368 8.368 0 0 0-.491-.454A5.976 5.976 0 0 1 8 2c.691 0 1.355.117 1.973.332c.018.219.027.442.027.668Zm0 5c0 .073-.004.146-.012.217c1.018-.019 2.2-.353 3.331-1.006a8.39 8.39 0 0 0 .57-.361a6.004 6.004 0 0 0-2.53-3.823a9.02 9.02 0 0 1-.145.64c-.34 1.269-.944 2.346-1.656 3.079c.277.343.442.78.442 1.254Zm-.137.728a2.007 2.007 0 0 1-1.07 1.109c.525.87 1.405 1.725 2.535 2.377c.2.116.402.222.605.317a5.986 5.986 0 0 0 2.053-4.111c-.208.073-.421.14-.641.199c-1.264.339-2.493.356-3.482.11ZM8 10c-.45 0-.866-.149-1.2-.4c-.494.89-.796 2.082-.796 3.391c0 .23.01.457.027.678A5.99 5.99 0 0 0 8 14c.94 0 1.83-.216 2.623-.602a8.359 8.359 0 0 1-.497-.458c-.925-.926-1.555-1.981-1.836-2.96c-.094.013-.191.02-.29.02ZM6 8c0-.08.005-.16.014-.239c-1.02.017-2.205.351-3.34 1.007a8.366 8.366 0 0 0-.568.359a6.003 6.003 0 0 0 2.525 3.839a8.37 8.37 0 0 1 .148-.653c.34-1.267.94-2.342 1.65-3.075A1.988 1.988 0 0 1 6 8Zm-3.347-.632c1.267-.34 2.498-.355 3.488-.107c.196-.494.583-.89 1.07-1.1c-.524-.874-1.406-1.733-2.541-2.388a8.363 8.363 0 0 0-.594-.312a5.987 5.987 0 0 0-2.06 4.106c.206-.074.418-.14.637-.199ZM8 9a1 1 0 1 0 0-2a1 1 0 0 0 0 2Z"/><path d="M8 15A7 7 0 1 1 8 1a7 7 0 0 1 0 14Zm0 1A8 8 0 1 0 8 0a8 8 0 0 0 0 16Z"/></g></svg>