<svg width="512" height="512" viewBox="0 0 16 16" xmlns="http://www.w3.org/2000/svg"><path fill="#fff" style="stroke-width:32" d="M96 66a64 64 0 0 0-64 64v128a64 64 0 0 0 64 64v64a64 64 0 0 0 64 64H351.82031a64 64 0 0 0 64-64v-64H416a64 64 0 0 0 64-64V130a64 64 0 0 0-64-64H96zm0 32h320a32 32 0 0 1 32 32v128a32 32 0 0 1-32 32H96a32 32 0 0 1-32-32V130a32 32 0 0 1 32-32zm32 224h255.82031v64a32 32 0 0 1-32 32H160a32 32 0 0 1-32-32v-64zm144 16c-8.83679 0-16 7.16352-16 16v32c0 8.83679 7.16321 16 16 16h64c8.83648 0 16-7.16321 16-16v-32c0-8.83648-7.16352-16-16-16h-64z" transform="translate(0 -.0625) scale(.03125)"/></svg>