<svg width="512" height="512" viewBox="0 0 16 16" xmlns="http://www.w3.org/2000/svg"><path fill="#fff" style="stroke-width:.312501" d="M.5 1a.5.5 0 0 0-.5.5.5.5 0 0 0 .5.5H1v12.5a.5.5 0 0 0 1 0V12h13.5a.5.5 0 0 0 .5-.5v-7a.5.5 0 0 0-.5-.5H2V1.5a.5.5 0 0 0-.5-.5h-1zM2 5h13v6H2V5zm3.8744507.5c-3.3325813.0007452-3.3325813 5.000745 0 5 3.334072.000745 3.334072-4.9992545 0-5zm5.5000613 0c-3.332581.0007452-3.332581 5.000745 0 5 3.334072.000745 3.334072-4.9992545 0-5zm-5.4998172 1c2.0004409.0004473 2.0004409 3.000447 0 3-1.9995468.000447-1.9995468-2.9995528 0-3zm5.5000612 0c2.000441.0004473 2.000441 3.000447 0 3-1.9995472.000447-1.9995472-2.9995528 0-3zM3 12.5v1a.5.5 0 0 0 .5.5H6a.5.5 0 0 0 .5-.5v-1H3zm4 0v1a.5.5 0 0 0 .5.5h3a.5.5 0 0 0 .5-.5v-1H7z"/></svg>