<svg width="512" height="512" viewBox="0 0 16 16" xmlns="http://www.w3.org/2000/svg"><path fill="#fff" d="M4 0a2 2 0 0 0-2 2v12a2 2 0 0 0 2 2h8a2 2 0 0 0 2-2V2a2 2 0 0 0-2-2H4zm0 1h8a1 1 0 0 1 1 1v12a1 1 0 0 1-1 1H4a1 1 0 0 1-1-1V2a1 1 0 0 1 1-1zm.47876 1.00043A.5.5 0 0 0 4 2.5a.5.5 0 0 0 1 0 .5.5 0 0 0-.52124-.49957zm7 0A.5.5 0 0 0 11 2.5a.5.5 0 0 0 1 0 .5.5 0 0 0-.52124-.49957zM8 3a4 4 0 0 0-1.883 7.53003c-.399.274-.69498.48995-.79498.58795a1.10274 1.10274 0 0 0 1.56 1.55902c.161-.162.64397-.864 1.18097-1.677A4 4 0 0 0 12 7a4 4 0 0 0-4-4zm.04187 1.00067A3 3 0 0 1 11 7a3.001 3.001 0 0 1-2.216 2.89697l.62-.95996c.143-.225-.11597-.48403-.33997-.34003-.559.358-1.28802.82801-1.95502 1.26801a3 3 0 0 1 .93286-5.86432zM8 6a1 1 0 0 0 0 2 1 1 0 0 0 0-2zm-3.5 7a.5.5 0 0 0 0 1 .5.5 0 0 0 0-1zm6.97876.00043A.5.5 0 0 0 11 13.5a.5.5 0 0 0 1 0 .5.5 0 0 0-.52124-.49957z"/></svg>