<svg width="512" height="512" viewBox="0 0 16 16" xmlns="http://www.w3.org/2000/svg"><path fill="#fff" d="M2 4a2 2 0 0 0-2 2v5a2 2 0 0 0 2 2h12a2 2 0 0 0 2-2V6a2 2 0 0 0-2-2H2zm0 1h12a1 1 0 0 1 1 1v5a1 1 0 0 1-1 1H2a1 1 0 0 1-1-1V6a1 1 0 0 1 1-1zm.25 1a.25.25 0 0 0-.25.25v.5a.25.25 0 0 0 .25.25h1.5A.25.25 0 0 0 4 6.75v-.5A.25.25 0 0 0 3.75 6h-1.5zm3 0a.25.25 0 0 0-.25.25v.5a.25.25 0 0 0 .25.25h.5A.25.25 0 0 0 6 6.75v-.5A.25.25 0 0 0 5.75 6h-.5zm2 0a.25.25 0 0 0-.25.25v.5a.25.25 0 0 0 .25.25h.5A.25.25 0 0 0 8 6.75v-.5A.25.25 0 0 0 7.75 6h-.5zm2 0a.25.25 0 0 0-.25.25v.5a.25.25 0 0 0 .25.25h.5a.25.25 0 0 0 .25-.25v-.5A.25.25 0 0 0 9.75 6h-.5zm2 0a.25.25 0 0 0-.25.25v.5a.25.25 0 0 0 .25.25h.5a.25.25 0 0 0 .25-.25v-.5a.25.25 0 0 0-.25-.25h-.5zm2 0a.25.25 0 0 0-.25.25v.5a.25.25 0 0 0 .25.25h.5a.25.25 0 0 0 .25-.25v-.5a.25.25 0 0 0-.25-.25h-.5zm-11 2a.25.25 0 0 0-.25.25v.5a.25.25 0 0 0 .25.25h.5A.25.25 0 0 0 3 8.75v-.5A.25.25 0 0 0 2.75 8h-.5zm2 0a.25.25 0 0 0-.25.25v.5a.25.25 0 0 0 .25.25h.5A.25.25 0 0 0 5 8.75v-.5A.25.25 0 0 0 4.75 8h-.5zm2 0a.25.25 0 0 0-.25.25v.5a.25.25 0 0 0 .25.25h.5A.25.25 0 0 0 7 8.75v-.5A.25.25 0 0 0 6.75 8h-.5zm2 0a.25.25 0 0 0-.25.25v.5a.25.25 0 0 0 .25.25h.5A.25.25 0 0 0 9 8.75v-.5A.25.25 0 0 0 8.75 8h-.5zm2 0a.25.25 0 0 0-.25.25v.5a.25.25 0 0 0 .25.25h1.5a.25.25 0 0 0 .25-.25v-.5a.25.25 0 0 0-.25-.25h-1.5zm3 0a.25.25 0 0 0-.25.25v.5a.25.25 0 0 0 .25.25h.5a.25.25 0 0 0 .25-.25v-.5a.25.25 0 0 0-.25-.25h-.5zm-11 2a.25.25 0 0 0-.25.25v.5a.25.25 0 0 0 .25.25h.5a.25.25 0 0 0 .25-.25v-.5a.25.25 0 0 0-.25-.25h-.5zm2 0a.25.25 0 0 0-.25.25v.5a.25.25 0 0 0 .25.25h5.5a.25.25 0 0 0 .25-.25v-.5a.25.25 0 0 0-.25-.25h-5.5zm7 0a.25.25 0 0 0-.25.25v.5a.25.25 0 0 0 .25.25h.5a.25.25 0 0 0 .25-.25v-.5a.25.25 0 0 0-.25-.25h-.5zm2 0a.25.25 0 0 0-.25.25v.5a.25.25 0 0 0 .25.25h.5a.25.25 0 0 0 .25-.25v-.5a.25.25 0 0 0-.25-.25h-.5z"/></svg>