<svg width="512" height="512" viewBox="0 0 16 16" xml:space="preserve" xmlns="http://www.w3.org/2000/svg"><path fill="#fff" d="M11.042053.03552246c-2.0631629 0-4.0963743.85186275-4.0963743 1.83001714v.9227294c0 .2223546.1707643.4025269.3814697.4025269h1.4497681c.2107055 0 .3814087-.1801723.3814087-.4025269v-.6942749c0-.2026318.1428973-.3737097.333313-.399292 0 0 .5219448-.1131591 1.5504148-.1131591 1.028469 0 1.550415.1131591 1.550415.1131591.190432.025565.333313.1966602.333313.399292v.6942749c0 .2223546.17072.4025269.381409.4025269h1.449768c.210705 0 .381409-.1801723.381409-.4025269v-.9226684C15.138383.88742934 13.105231.03552246 11.042053.03552246zM.5 1a.5.5 0 0 0-.5.5.5.5 0 0 0 .5.5H1v12.5a.5.5 0 0 0 1 0V12h13.5a.5.5 0 0 0 .5-.5v-7a.5.5 0 0 0-.5-.5h-1v1h.5v6H2V5h5.5V4H2V1.5a.5.5 0 0 0-.5-.5h-1zm10.542053 1.0075073c-.964272 0-1.4651612.1035946-1.4701536.1046753l-.0099487.0021362v.6739502c0 .4568841-.3521983.8284913-.7850342.8284913H7.7680054v2.397644c0 .59285.4553503 1.0733643 1.0170288 1.0733643h4.5139768c.561679 0 1.01709-.4805312 1.01709-1.0733643v-2.397644H13.30719c-.432836 0-.785034-.3716072-.785034-.8284913v-.6739502l-.010987-.0023803c-.004-.0008274-.504845-.1044312-1.469116-.1044312zM9.8411255 3.6432495h.5426635v.5726929h-.5426635v-.5726929zm.9296265 0h.542664v.5726929h-.542664v-.5726929zm.929626 0h.542664v.5726929h-.542664v-.5726929zm-1.8592525.9056397h.5426635v.5728149h-.5426635v-.5728149zm.9296265 0h.542664v.5728149h-.542664v-.5728149zm.929626 0h.542664v.5728149h-.542664v-.5728149zm-1.8592525.9057617h.5426635v.5728149h-.5426635v-.5728149zm.9296265 0h.542664v.5728149h-.542664v-.5728149zm.929626 0h.542664v.5728149h-.542664v-.5728149zM3 12.5v1a.5.5 0 0 0 .5.5H6a.5.5 0 0 0 .5-.5v-1H3zm4 0v1a.5.5 0 0 0 .5.5h3a.5.5 0 0 0 .5-.5v-1H7z"/></svg>