<svg width="512" height="512" viewBox="0 0 16 16" xmlns="http://www.w3.org/2000/svg"><path fill="#fff" d="M3 0a2 2 0 0 0-2 2H.5a.5.5 0 0 0-.5.5v2a.5.5 0 0 0 .5.5H1v1H.5a.5.5 0 0 0-.5.5v1a.5.5 0 0 0 .5.5H1v1H.5a.5.5 0 0 0-.5.5v1a.5.5 0 0 0 .5.5H1v2a2 2 0 0 0 2 2h11a2 2 0 0 0 2-2V2a2 2 0 0 0-2-2H3zm0 1h11a1 1 0 0 1 1 1v11a1 1 0 0 1-1 1H3a1 1 0 0 1-1-1V2a1 1 0 0 1 1-1zm2.5 1a.5.5 0 0 0-.5.5V3a1 1 0 0 0-1 1h-.5a.5.5 0 0 0 0 1H4v1h-.5a.5.5 0 0 0 0 1H4a1 1 0 0 0 1 1v.5a.5.5 0 0 0 1 0V8h1v.5a.5.5 0 0 0 1 0V8a1 1 0 0 0 1-1h.5a.5.5 0 0 0 0-1H9V5h.5a.5.5 0 0 0 0-1H9a1 1 0 0 0-1-1v-.5a.5.5 0 0 0-1 0V3H6v-.5a.5.5 0 0 0-.5-.5zm6 0a.5.5 0 0 0-.5.5v7a.5.5 0 0 0 1 0v-7a.5.5 0 0 0-.5-.5zm2 0a.5.5 0 0 0-.5.5v7a.5.5 0 0 0 1 0v-7a.5.5 0 0 0-.5-.5zM5 4h3v3H5V4zm-1.5 6a.5.5 0 0 0 0 1h6a.5.5 0 0 0 0-1h-6zm8 1a.5.5 0 0 0-.5.5v1a.5.5 0 0 0 .5.5h2a.5.5 0 0 0 .5-.5v-1a.5.5 0 0 0-.5-.5h-2zm-8 1a.5.5 0 0 0 0 1h6a.5.5 0 0 0 0-1h-6z"/></svg>