<svg width="512" height="512" viewBox="0 0 16 16" xmlns="http://www.w3.org/2000/svg"><path fill="#fff" d="M1 5c-.5522808 0-1 .4477188-1 1v3.5c0 .552281.4477192 1 1 1h14c.55228 0 1-.447719 1-1V6c0-.5522812-.44772-1-1-1H1zm.75 1h12.5c.414213 0 .75.3357889.75.75v2c0 .4142112-.335787.75-.75.75H1.75c-.4142124 0-.75-.3357888-.75-.75v-2c0-.4142111.3357876-.75.75-.75zm.75.5c-.6666626 0-.6666626 1 0 1 .3333324 0 .5-.2500006.5-.5 0-.2499994-.1666676-.5-.5-.5zm1.5 0c-.6666626 0-.6666626 1 0 1 .3333324 0 .5-.2500006.5-.5 0-.2499994-.1666676-.5-.5-.5zm1.5 0c-.6666626 0-.6666626 1 0 1 .3333324 0 .5-.2500006.5-.5 0-.2499994-.1666676-.5-.5-.5zm1.5 0c-.6666626 0-.6666626 1 0 1 .3333324 0 .5-.2500006.5-.5 0-.2499994-.1666676-.5-.5-.5zm2 0c-.6666626 0-.6666626 1 0 1 .3333324 0 .5-.2500006.5-.5 0-.2499994-.1666676-.5-.5-.5zm1.5 0c-.6666623 0-.6666623 1 0 1 .333333 0 .5-.2500006.5-.5 0-.2499994-.166667-.5-.5-.5zm1.5 0c-.666662 0-.666662 1 0 1 .333333 0 .5-.2500006.5-.5 0-.2499994-.166667-.5-.5-.5zm1.5 0c-.666663 0-.666663 1 0 1 .333332 0 .5-.2500006.5-.5 0-.2499994-.166668-.5-.5-.5zM2.5 8c-.6666626 0-.6666626 1 0 1 .3333324 0 .5-.2500007.5-.5 0-.2499993-.1666676-.5-.5-.5zM4 8c-.6666626 0-.6666626 1 0 1 .3333324 0 .5-.2500007.5-.5 0-.2499993-.1666676-.5-.5-.5zm1.5 0c-.6666626 0-.6666626 1 0 1 .3333324 0 .5-.2500007.5-.5 0-.2499993-.1666676-.5-.5-.5zM7 8c-.6666626 0-.6666626 1 0 1 .3333324 0 .5-.2500007.5-.5 0-.2499993-.1666676-.5-.5-.5zm2 0c-.6666626 0-.6666626 1 0 1 .3333324 0 .5-.2500007.5-.5 0-.2499993-.1666676-.5-.5-.5zm1.5 0c-.6666623 0-.6666623 1 0 1 .333333 0 .5-.2500007.5-.5 0-.2499993-.166667-.5-.5-.5zM12 8c-.666662 0-.666662 1 0 1 .333333 0 .5-.2500007.5-.5 0-.2499993-.166667-.5-.5-.5zm1.5 0c-.666663 0-.666663 1 0 1 .333332 0 .5-.2500007.5-.5 0-.2499993-.166668-.5-.5-.5z"/></svg>