<svg width="512" height="512" viewBox="0 0 16 16" xmlns="http://www.w3.org/2000/svg"><path fill="#fff" d="M1 4c-.55228245 0-1 .447717-1 1v6c0 .552283.44771755 1 1 1h14c.552283 0 1-.447717 1-1V5c0-.552283-.447717-1-1-1H1zm.75 1h12.5c.414213 0 .75.3357877.75.75v4.5c0 .414213-.335787.75-.75.75H1.75c-.4142136 0-.75-.335787-.75-.75v-4.5c0-.4142123.3357864-.75.75-.75zm.25.5c-.6666633 0-.6666633 1 0 1 .3333327 0 .5-.2500004.5-.5s-.1666673-.5-.5-.5zM5 6c-.2761411 0-.5.2238593-.5.5V7h-1c-.1567624 0-.2766416.0553102-.3596802.1398926-.0826817.0809511-.1374742.197037-.1401977.3482666-.0000026.000122.0000025.0002442 0 .0003662C3.0000556 7.4923358 3 7.496145 3 7.5V10c0 .0039.0000556.007695.0001221.011475.0000025.000122-.0000026.000244 0 .000366.00272.15123.0575161.267316.1401977.348266.0816589.08318.1989749.138032.3519287.139832C3.494832 10.49997 3.4974162 10.5 3.5 10.5h4c.00382 0 .0076496-.000044.0114746-.000122h.0003662c.1509612-.0027.266908-.05733.3478394-.139771.0827039-.080969.1375014-.197099.1401977-.348388C7.9999589 10.007813 8 10.003906 8 10V7.5c0-.00382-.000044-.0076496-.0001221-.0114746-.0000014-.0000811.0000015-.0001631 0-.0002442v-.000122c-.0027327-.1517397-.0578418-.2681348-.1409912-.3491211-.0809158-.0819945-.1966549-.1362335-.3471679-.138916-.00132-.0000276-.0026373-.0000428-.0039673-.0000611-.0006307-.0000074-.0012621.0000056-.0018921 0C7.503907 7.0000407 7.5019531 7 7.5 7h-1v-.5c0-.2761407-.2238589-.5-.5-.5H5zm6 0c-.276141 0-.5.2238593-.5.5V7h-1c-.1567628 0-.2766423.0553101-.3596802.1398926-.0826799.0809509-.1374747.197037-.1401977.3482666-.000003.000122.000002.0002442 0 .0003662C9.0000551 7.4923354 9 7.496145 9 7.5V10c0 .0039.0000551.007695.0001221.011475.000002.000122-.000003.000244 0 .000366.0027.15123.0575198.267316.1401977.348266.0816599.08318.1989749.138032.3519287.139832.0026.000031.0051905.000061.0076905.000061h4c.0038 0 .007605-.000044.011475-.000122h.000366c.150962-.0027.266907-.05733.347839-.139771.0827-.080969.137501-.197099.140198-.348388C13.999948 10.007819 14 10.00392 14 10V7.5c0-.00382-.000044-.0076496-.000122-.0114746-.000001-.0000811.000002-.0001631 0-.0002442v-.000122c-.0027-.1517397-.05784-.2681348-.140991-.3491211-.08092-.0819949-.196655-.1362335-.347168-.138916-.0013-.0000276-.002729-.0000428-.004029-.0000611-.000631-.0000074-.001292.0000056-.001892 0C13.503798 7.0000407 13.501939 7 13.499939 7h-1v-.5c0-.2761407-.223858-.5-.5-.5H11zM2 7c-.6666633 0-.6666633 1 0 1 .3333327 0 .5-.2500005.5-.5 0-.2499995-.1666673-.5-.5-.5zm2 1h3v1.5H4V8zm6 0h3v1.5h-3V8z"/></svg>