<svg width="512" height="512" viewBox="0 0 16 16" xml:space="preserve" xmlns="http://www.w3.org/2000/svg"><path fill="#fff" d="M10.5.5a.5.5 0 0 0-.5.5h-.5A1.5 1.5 0 0 0 8 2.5v3A1.5 1.5 0 0 0 9.5 7h1v1.5a.5.5 0 0 0 1 0V7h1A1.5 1.5 0 0 0 14 5.5v-3A1.5 1.5 0 0 0 12.5 1H12a.5.5 0 0 0-.5-.5h-1zM.5 1a.5.5 0 0 0-.5.5.5.5 0 0 0 .5.5H1v12.5a.5.5 0 0 0 1 0V12h13.5a.5.5 0 0 0 .5-.5v-7a.5.5 0 0 0-.5-.5h-1v1h.5v6H2V5h5.5V4H2V1.5a.5.5 0 0 0-.5-.5h-1zm9 1h.5v1a.5.5 0 0 0 .5.5h1A.5.5 0 0 0 12 3V2h.5a.5.5 0 0 1 .5.5v3a.5.5 0 0 1-.5.5h-3a.5.5 0 0 1-.5-.5v-3a.5.5 0 0 1 .5-.5zM3 12.5v1a.5.5 0 0 0 .5.5H6a.5.5 0 0 0 .5-.5v-1H3zm4 0v1a.5.5 0 0 0 .5.5h3a.5.5 0 0 0 .5-.5v-1H7z"/></svg>