<svg width="512" height="512" viewBox="0 0 16 16" xmlns="http://www.w3.org/2000/svg"><path fill="#fff" d="M8 .99993896A4.5 4.5 0 0 0 4.8179932 2.3179932a.5.5 0 0 0 .7070312.7070312 3.5 3.5 0 0 1 4.9499516 0 .5.5 0 1 0 .707031-.7070312A4.5 4.5 0 0 0 8 .99993896zm-5.4962769.98217774a.5.5 0 0 0-.4777221.6759033L3.8060303 8H1.5A1.5 1.5 0 0 0 0 9.5v2A1.5 1.5 0 0 0 1.5 13H2a.5.5 0 0 0 .5.5h2A.5.5 0 0 0 5 13h6a.5.5 0 0 0 .5.5h2a.5.5 0 0 0 .5-.5h.5a1.5 1.5 0 0 0 1.5-1.5v-2A1.5 1.5 0 0 0 14.5 8h-2.30603l1.780029-5.34198a.5.5 0 1 0-.947998-.31604L11.140015 8H4.8599854L2.973999 2.34198a.5.5 0 0 0-.4702759-.3598633zM8 2.9995117a2.5 2.5 0 0 0-1.7680054.7324829.5.5 0 0 0 .7070313.7070313l.0009765.0009765a1.5 1.5 0 0 1 2.1199952 0 .50063713.50063713 0 0 0 .7080078-.7080078A2.5 2.5 0 0 0 8 2.9995117zM7.9934082 5.000061A.5.5 0 0 0 7.5 5.5a.5.5 0 0 0 1 0 .5.5 0 0 0-.5065918-.499939zM1.5 9h13a.5.5 0 0 1 .5.5v2a.5.5 0 0 1-.5.5h-13a.5.5 0 0 1-.5-.5v-2a.5.5 0 0 1 .5-.5zm1 1a.5.5 0 0 0 0 1 .5.5 0 0 0 0-1zm7 0a.5.5 0 0 0 0 1 .5.5 0 0 0 0-1zm-2.0212402.000427A.5.5 0 0 0 7 10.5a.5.5 0 0 0 1 0 .5.5 0 0 0-.5212402-.499573zm4.0000002 0A.5.5 0 0 0 11 10.5a.5.5 0 0 0 1 0 .5.5 0 0 0-.52124-.499573zm2 0A.5.5 0 0 0 13 10.5a.5.5 0 0 0 1 0 .5.5 0 0 0-.52124-.499573z"/></svg>