<svg width="512" height="512" viewBox="0 0 16 16" xml:space="preserve" xmlns="http://www.w3.org/2000/svg"><path fill="#fff" d="M13.283203.453125 2.8125.45703125 2.5195312.640625.56054688 4.6484375s-.18231793.3304632-.15625.7363281c.01303398.2029325.09629741.4473735.30078124.6191406.20448388.1717673.49168408.2530965.85937498.2519532.0389027-.000121.1141633-.0002002.1686402-.0003052L.16015625 12.414062l-.00976563.080079-.0078125 1.875s-.00035408.270875.17773438.519531.54633586.462814 1.09375.453125c.0774009-.0014.9838043-.002606 2.2480469-.003906 1.2642424-.0013 2.9102519-.003107 4.5429687-.003907 3.2623159-.001698 6.4665949-.002013 6.4727169-.002014-.022321-.002042-.035217-.003845-.035217-.003845l.039063.003845h-.003846c.084792.007756.313398.018912.560486-.052673.156068-.04521.331475-.127134.472657-.283203.14118-.15607.231012-.385066.232421-.642578.0038-.694857 0-1.865235 0-1.865235l-.04364-.04364.028015-.007141-1.569275-6.1799316c.092444.0000478.483338.0002441.483338.0002441h.00592s.301725.0122978.587891-.171875c.143083-.0920869.29116-.2609529.332031-.484375.04083-.223419-.016925-.4652141-.156311-.7265625-.450165-.8440594-2.033203-4.23242187-2.033203-4.23242188L13.283203.453125zm-.205078.6542969c.099581.2136308.952239 2.0455853 1.544006 3.2557983l-13.1940914-.001831L3.0175781 1.109375l10.0605469-.0019531zM1.1166992 5.015625H14.947449c.031675.0616233.061302.1184583.087707.1679688.09589.1798026.095054.2723341.089844.3007812-.0052.028447-.006999.0295714-.042969.0527344-.07198.0463269-.248047.0683593-.248047.0683594-.01394-.000007-11.8540255-.0063632-13.271484-.0019532-.2706579.0008392-.3888989-.0587843-.4375-.0996094-.0486011-.0408249-.0631237-.080593-.0683594-.1621093-.0067677-.1053702.0318408-.242278.0600586-.3261719zm2.8458252 1.2387695-.8453369 3.9877935.3203125.394531 5.7792969-.003907.2226562-.08789 2.8164059-2.6523439.097657-.2988281-.251282-1.3372192c.17296.0000764.411604.0001711.57196.0002441l1.00354 4.6709591-11.3867184-.013672 1.091919-4.6595454c.1943557-.0000411.3639865-.0001071.5795898-.0001221zm.6672974 0c2.1097929.0000776 4.6832534.0009906 6.8070072.0018921l.200805 1.069336-2.4071652.0083618-.3242188.3242187-.0189209 2.3223267-5.0474853.0018921.789978-3.7280274zm-1.9170532.0002442L1.5605469 11.166016l.3183593.40039 12.2011718.013672.320313-.394531-1.058167-4.9284669c.174795.0000838.198582.0001129.340759.0001831l1.500916 5.9055788-5.1858521.009033-.3242188.326172-.0039062.867187c-.00691.0062-.0526743.053218-.2910157.054688-.7293139.0045-2.7903252.003906-2.8046874.003906l-.0058594-.93164-.328125-.324219-5.34570315.009826L2.4075317 6.2548218c.0921544-.0000587.20216-.0001366.3052369-.0001831zm2.609497.0070801v.6523437h5.3242184v-.6523437H5.3222656zm-.3515625 1.2050781v.6542969h3.4414063v-.6542969H4.9707031zm6.2376709.5144043L9.5447388 9.5482788l.0119018-1.5618896 1.6517334-.005188zm-6.6868896.75708v.6523438L8.4375 9.3945312v-.6523437l-3.9160156-.0039063zM15.291016 12.816406c.000807.297044.0031.965554 0 1.533203-.000685.125095-.030034.170928-.064454.208985-.034429.03806-.092889.07143-.169921.09375-.154059.04463-.335938.029297-.335938.029297l-.039062-.003907s-3.211007.002207-6.4765629.003907c-1.6327775.000833-3.2804516.000638-4.5449219.002014-1.2644703.0013-2.1229684.003459-2.2578124.005859-.3948267.007-.49523006-.102124-.5507813-.179687-.05555624-.077655-.0546875-.13678-.0546875-.13678l.00585938-1.542969 5.11523442-.007812.0039062.617187v.003906c.00225.144153.0320661.276003.1015625.388672.0694969.11267.1798925.190622.2792969.22461.1256779.042967.2367282.033979.3015136.021545h-.0397949l.0996094-.015625s-.0221165.00839-.0598145.015625c.1164272.000031 2.0625815.000478 2.7805176-.003906.3613802-.0022.6118728-.09741.7656254-.25.07688-.07629.122957-.162209.146484-.232422.02353-.07021.025391-.152344.025391-.152344l.002014-.615234 4.966736-.007874z"/></svg>