<svg width="512" height="512" viewBox="0 0 16 16" xmlns="http://www.w3.org/2000/svg"><path fill="#fff" d="M5.9140015 0a1.5 1.5 0 0 0-1.0609742.43902588L2.4400024 2.8540039C2.1580027 3.1340036 2 3.5160019 2 3.9140015V14.5A1.5 1.5 0 0 0 3.5 16h9a1.5 1.5 0 0 0 1.5-1.5v-13A1.5 1.5 0 0 0 12.5 0H5.9140015zm0 1H12.5a.5.5 0 0 1 .5.5v13a.5.5 0 0 1-.5.5h-9a.5.5 0 0 1-.5-.5V3.9140015a.5.5 0 0 1 .1459961-.3530274l2.414978-2.414978A.5.5 0 0 1 5.9140015 1zM5.5 2.75a.75.75 0 0 0-.75.75v2a.75.75 0 0 0 1.5 0v-2a.75.75 0 0 0-.75-.75zm2 0a.75.75 0 0 0-.75.75v2a.75.75 0 0 0 1.5 0v-2a.75.75 0 0 0-.75-.75zm2 0a.75.75 0 0 0-.75.75v2a.75.75 0 0 0 1.5 0v-2a.75.75 0 0 0-.75-.75zm2 0a.75.75 0 0 0-.75.75v2a.75.75 0 0 0 1.5 0v-2a.75.75 0 0 0-.75-.75z"/></svg>