<svg width="512" height="512" viewBox="0 0 16 16" xmlns="http://www.w3.org/2000/svg"><path fill="#fff" d="M4 0a2 2 0 0 0-2 2v12a2 2 0 0 0 2 2h8a2 2 0 0 0 2-2V2a2 2 0 0 0-2-2H4zm0 1h8a1 1 0 0 1 1 1v12a1 1 0 0 1-1 1v-2a1 1 0 0 0-1-1H5a1 1 0 0 0-1 1v2a1 1 0 0 1-1-1V2a1 1 0 0 1 1-1zm.480835 1.0003662A.5.5 0 0 0 4 2.5a.5.5 0 0 0 1 0 .5.5 0 0 0-.519165-.4996338zm7 0A.5.5 0 0 0 11 2.5a.5.5 0 0 0 1 0 .5.5 0 0 0-.519165-.4996338zM4.75 4a.75.75 0 0 0-.75.75v3.5c0 .4139996.3360004.75.75.75h6.5a.75.75 0 0 0 .75-.75v-3.5a.75.75 0 0 0-.75-.75h-6.5zM5 5h6v3H5V5zm-.5 5a.5.5 0 0 0 0 1 .5.5 0 0 0 0-1zm7 0a.5.5 0 0 0 0 1 .5.5 0 0 0 0-1zM5 13h.75v2H5v-2zm1.75 0h.75v2h-.75v-2zm1.75 0h.75v2H8.5v-2zm1.75 0H11v2h-.75v-2z"/></svg>