<svg width="512" height="512" viewBox="0 0 16 16" xmlns="http://www.w3.org/2000/svg"><path fill="#fff" d="M.5 1a.5.5 0 0 0-.5.5.5.5 0 0 0 .5.5H1v12.5a.5.5 0 0 0 1 0V12h13.5a.5.5 0 0 0 .5-.5v-7a.5.5 0 0 0-.5-.5h-1v1h.5v6H2V5h7.5V4H2V1.5a.5.5 0 0 0-.5-.5h-1zm10.750061.1248169a.125.125 0 0 0-.088501.0367432.125.125 0 0 0 0 .1770019L11.823242 2H10.5a.5.5 0 0 0-.5.5v3a.5.5 0 0 0 .5.5h3a.5.5 0 0 0 .5-.5v-3a.5.5 0 0 0-.5-.5h-1.323181l.661743-.661438a.1251579.1251579 0 0 0-.088501-.2136841.1251579.1251579 0 0 0-.088501.0366822l-.661499.6617431-.661499-.6617431a.125.125 0 0 0-.088501-.0367432zM10.5 2.25h3a.25.25 0 0 1 .25.25v3a.25.25 0 0 1-.25.25h-3a.25.25 0 0 1-.25-.25v-3a.25.25 0 0 1 .25-.25zm-.171143.7502441v.3309937h.567017v1.6685181h.396973V3.3312378h.568542v-.3309937h-1.532532zm1.532532 0 .669434 1.9995118h.476013l.664307-1.9995118h-.439515l-.44403 1.5689698h-.019165l-.448487-1.5689698h-.458557zM3 12.5v1a.5.5 0 0 0 .5.5H6a.5.5 0 0 0 .5-.5v-1H3zm4 0v1a.5.5 0 0 0 .5.5h3a.5.5 0 0 0 .5-.5v-1H7z"/></svg>