<svg width="512" height="512" viewBox="0 0 16 16" xmlns="http://www.w3.org/2000/svg"><path fill="#fff" d="M8.0050049 3.5c-1.0574784 0-2.1992718.4110095-2.6032105 1.53302h-.4932861c-.2761417 0-.5.2238583-.5.5v1c0 .232974.1593545.4287424.375.4842529V7.78302c0 .138071.1119289.25.25.25h.5c.1380711 0 .25-.111929.25-.25v-.75h.25v.75c0 .1380709.1119289.25.25.25h.5c.1380711 0 .25-.1119291.25-.25v-.7657471c.2156455-.0555105.375-.2512789.375-.4842529v-1c0-.2702598-.2144182-.4904376-.4824219-.4996948.2268156-.2395396.5615602-.3843384 1.0029297-.3843384.6859993 0 1.3139649.3430306 1.3139649 1.1680298 0 .6349994-.3739665.9269721-.9649659 1.3709717-.6729993.4889995-1.2060297 1.0600004-1.1680297 1.9869995l.0029907.217041a.25.25 0 0 0 .25.2459717h.8110351a.25.25 0 0 0 .25-.25V9.28302c0-.7179993.2730105-.9270235 1.0100098-1.4860229.608999-.4629996 1.243958-.9769703 1.243958-2.0559693C10.677979 4.2300293 9.4020035 3.5 8.0050049 3.5zm-.184021 7.109009c-.5839994 0-1.0089722.388003-1.0089722.940002 0 .533.4250104.927002 1.0100098.927002.6089994 0 1.0279541-.394002 1.0279541-.927002 0-.551999-.4199923-.940002-1.0289917-.940002z"/></svg>