<svg width="512" height="512" viewBox="0 0 16 16" xmlns="http://www.w3.org/2000/svg"><path fill="#fff" d="M2 3.875c-.3749992 0-.75.2500012-.75.75v1.75h1.5v-1.75c0-.4999988-.3750008-.75-.75-.75Zm2 0c-.3749992 0-.75.2500012-.75.75v1.75h1.5v-1.75c0-.4999988-.3750008-.75-.75-.75Zm2 0c-.3749992 0-.75.2500012-.75.75v1.75h1.5v-1.75c0-.4999988-.3750008-.75-.75-.75Zm2 0c-.3749992 0-.75.2500012-.75.75v1.75h1.5v-1.75c0-.4999988-.3750008-.75-.75-.75Zm2 0c-.3749992 0-.75.2500011-.75.75v1.75h1.5v-1.75c0-.4999989-.375-.75-.75-.75zm2 0c-.375 0-.75.2500011-.75.75v1.75h1.5v-1.75c0-.4999989-.375-.75-.75-.75zm2 0c-.375 0-.75.2500012-.75.75v1.75h1.5v-1.75c0-.4999988-.375-.75-.75-.75ZM1 6.625c-.55228025 0-1 .4477194-1 1v3.5c0 .55228.44771975 1 1 1h14c.552279 0 1-.44772 1-1v-3.5c0-.5522806-.447721-1-1-1zm.75 1h12.5c.414213 0 .75.3357893.75.75v2c0 .414211-.335787.75-.75.75H1.75c-.414212 0-.75-.335789-.75-.75v-2c0-.4142107.335788-.75.75-.75Z"/></svg>