<svg width="512" height="512" viewBox="0 0 16 16" xmlns="http://www.w3.org/2000/svg"><path fill="#fff" d="M.5 1a.5.5 0 0 0-.5.5.5.5 0 0 0 .5.5H1v12.5a.5.5 0 0 0 1 0V12h13.5a.5.5 0 0 0 .5-.5v-7a.5.5 0 0 0-.5-.5h-1v1h.5v6H2V5h5.5V4H2V1.5a.5.5 0 0 0-.5-.5h-1zm8.045 0A.545.545 0 0 0 8 1.545a.545.545 0 0 0 .545.546 4.364 4.363 0 0 1 4.364 4.363.545.545 0 0 0 1.091 0A5.454 5.454 0 0 0 8.545 1zm0 2.182A.545.545 0 0 0 8 3.727a.545.545 0 0 0 .545.546 2.182 2.182 0 0 1 2.182 2.181.545.545 0 0 0 1.091 0 3.273 3.273 0 0 0-3.273-3.272zm.273 2.182A.818.818 0 0 0 8 6.182a.818.818 0 1 0 1.636 0 .818.818 0 0 0-.818-.818zm2.43 1.827a.052.052 0 0 0-.015.003h-.002l-.001.001h-.002a.052.052 0 0 0-.01.006.002.002 0 0 0 0 .003.002.002 0 0 0 .003 0 .048.048 0 0 1 .028-.009c.01 0 .02.004.028.01l.003-.001a.002.002 0 0 0 0-.001.002.002 0 0 0 0-.001.002.002 0 0 0 0-.001.052.052 0 0 0-.03-.01h-.002zm0 .012a.04.04 0 0 0-.02.007.002.002 0 0 0 0 .003.002.002 0 0 0 .002 0 .035.035 0 0 1 .02-.005.035.035 0 0 1 .018.005h.003a.002.002 0 0 0 0-.001.002.002 0 0 0 0-.001.002.002 0 0 0 0-.001.04.04 0 0 0-.022-.007zm0 .013a.027.027 0 0 0-.01.003h-.001v.003h.002a.023.023 0 0 1 .01-.002c.004 0 .007 0 .01.002h.003v-.003a.027.027 0 0 0-.013-.003zm.001.01a.008.008 0 0 0-.004.001v.003l.003.003a.002.002 0 0 0 .003 0l.003-.003v-.003a.008.008 0 0 0-.005 0zM3 12.5v1a.5.5 0 0 0 .5.5H6a.5.5 0 0 0 .5-.5v-1H3zm4 0v1a.5.5 0 0 0 .5.5h3a.5.5 0 0 0 .5-.5v-1H7z"/></svg>